<?xml version="1.0" encoding="UTF-8"?>
<svg xmlns="http://www.w3.org/2000/svg" xmlns:xlink="http://www.w3.org/1999/xlink" viewBox="0 0 48 48" width="48px" height="48px">
<g id="surface251816047">
<path style=" stroke:none;fill-rule:nonzero;fill:rgb(10.196079%,73.725492%,61.176473%);fill-opacity:1;" d="M 43.269531 8.0625 C 41.636719 8.832031 38.863281 10.277344 37.46875 10.550781 C 37.414062 10.566406 37.371094 10.585938 37.320312 10.597656 C 35.695312 8.992188 33.464844 8 31 8 C 26.03125 8 22 12.03125 22 17 C 22 17.261719 21.976562 17.742188 22 18 C 15.5625 18 10.863281 14.640625 7.347656 10.324219 C 6.875 9.746094 6.375 10.046875 6.273438 10.460938 C 6.039062 11.390625 5.957031 12.949219 5.957031 14.0625 C 5.957031 16.863281 8.148438 19.617188 11.558594 21.320312 C 10.929688 21.484375 10.238281 21.601562 9.519531 21.601562 C 8.671875 21.601562 7.695312 21.378906 6.839844 20.929688 C 6.523438 20.765625 5.84375 20.808594 6.042969 21.617188 C 6.855469 24.855469 10.550781 27.128906 13.851562 27.792969 C 13.101562 28.234375 11.503906 28.144531 10.765625 28.144531 C 10.492188 28.144531 9.546875 28.078125 8.9375 28.003906 C 8.378906 27.9375 7.519531 28.078125 8.238281 29.167969 C 9.78125 31.503906 13.269531 32.96875 16.269531 33.023438 C 13.507812 35.191406 8.984375 35.984375 4.65625 35.984375 C 3.78125 35.964844 3.824219 36.960938 4.53125 37.332031 C 7.722656 39.007812 12.957031 40 16.695312 40 C 31.554688 40 40 28.675781 40 17.996094 C 40 17.824219 39.996094 17.464844 39.988281 17.105469 C 39.988281 17.066406 40 17.035156 40 16.996094 C 40 16.945312 39.984375 16.890625 39.984375 16.839844 C 39.976562 16.566406 39.972656 16.3125 39.964844 16.179688 C 41.144531 15.328125 42.949219 13.855469 43.859375 12.722656 C 44.171875 12.339844 43.921875 11.875 43.496094 12.019531 C 42.410156 12.398438 40.535156 13.128906 39.359375 13.269531 C 41.710938 11.710938 42.875 10.355469 43.875 8.851562 C 44.21875 8.335938 43.789062 7.8125 43.269531 8.0625 Z M 43.269531 8.0625 "/>
</g>
</svg>
